<?xml version="1.0" standalone="no"?>
<!DOCTYPE svg PUBLIC "-//W3C//DTD SVG 20010904//EN"
 "http://www.w3.org/TR/2001/REC-SVG-20010904/DTD/svg10.dtd">
<svg version="1.0" xmlns="http://www.w3.org/2000/svg"
 width="1040.000000pt" height="1040.000000pt" viewBox="0 0 1040.000000 1040.000000"
 preserveAspectRatio="xMidYMid meet">
<metadata>
Created by potrace 1.14, written by Peter Selinger 2001-2017
</metadata>
<g transform="translate(0.000000,1040.000000) scale(0.100000,-0.100000)"
fill="#000000" stroke="none">
<path d="M6050 6459 c-184 -14 -407 -94 -578 -206 -74 -49 -179 -153 -234
-232 l-17 -24 -92 97 c-140 147 -267 228 -465 294 -149 50 -229 61 -460 62
l-209 1 -135 -40 c-136 -41 -297 -113 -380 -169 -73 -51 -218 -202 -274 -287
-69 -106 -108 -202 -146 -365 -29 -122 -35 -180 -43 -370 -2 -67 21 -253 44
-345 37 -152 148 -395 262 -576 108 -172 326 -420 487 -554 149 -124 598 -443
920 -653 80 -52 196 -132 257 -179 151 -113 188 -133 244 -133 49 0 60 7 304
185 50 37 162 115 250 174 257 173 523 364 709 507 168 129 263 218 399 374
177 202 209 250 346 520 93 182 141 341 170 555 15 105 14 175 -4 320 -38 320
-127 522 -314 719 -122 127 -257 205 -475 275 -184 59 -314 70 -566 50z"/>
</g>
</svg>
